<svg width="261" height="30" viewBox="0 0 261 30" fill="none" xmlns="http://www.w3.org/2000/svg">
<g clip-path="url(#clip0_1299_13096)">
<path d="M222.247 20.4006C222.247 20.9006 222.044 21.3006 221.74 21.6006C221.436 21.9006 220.93 22.1006 220.423 22.1006C219.916 22.1006 219.511 21.9006 219.207 21.6006C218.903 21.3006 218.701 20.8006 218.701 20.4006C218.701 19.9006 218.903 19.5006 219.207 19.1006C219.511 18.8006 220.018 18.6006 220.423 18.6006C220.93 18.6006 221.335 18.8006 221.74 19.1006C222.146 19.5006 222.247 19.9006 222.247 20.4006Z" fill="#5F6368"/>
<path d="M223.767 15.7C223.767 13.8 224.375 12.1 225.591 10.9C226.807 9.6 228.428 9 230.353 9C232.278 9 233.798 9.6 235.115 10.9C236.331 12.2 237.04 13.8 237.04 15.7C237.04 17.7 236.432 19.3 235.115 20.5C233.899 21.8 232.278 22.4 230.353 22.4C228.428 22.4 226.908 21.8 225.591 20.5C224.375 19.3 223.767 17.7 223.767 15.7ZM226.199 15.7C226.199 17.1 226.604 18.2 227.415 19C228.225 19.8 229.238 20.3 230.454 20.3C231.67 20.3 232.683 19.9 233.494 19C234.305 18.2 234.71 17.1 234.71 15.7C234.71 14.4 234.305 13.3 233.494 12.4C232.683 11.5 231.67 11.1 230.454 11.1C229.238 11.1 228.326 11.5 227.415 12.4C226.604 13.3 226.199 14.4 226.199 15.7Z" fill="#5F6368"/>
<path d="M241.499 22.0006H239.067V9.40059H241.397V11.5006H241.499C241.701 10.8006 242.208 10.3006 243.019 9.80059C243.829 9.30059 244.538 9.10059 245.248 9.10059C245.957 9.10059 246.565 9.20059 247.072 9.40059L246.362 11.7006C246.058 11.6006 245.552 11.5006 244.944 11.5006C244.032 11.5006 243.221 11.9006 242.613 12.6006C241.904 13.3006 241.6 14.2006 241.6 15.1006V22.0006H241.499Z" fill="#5F6368"/>
<path d="M253.658 28.0004C252.948 28.0004 252.239 27.9004 251.631 27.7004C251.023 27.5004 250.415 27.3004 249.909 26.9004C249.402 26.6004 248.997 26.2004 248.591 25.7004C248.186 25.3004 247.983 24.8004 247.781 24.2004L250.111 23.3004C250.415 24.0004 250.821 24.6004 251.429 25.1004C252.036 25.5004 252.847 25.8004 253.658 25.8004C254.975 25.8004 255.988 25.4004 256.697 24.6004C257.407 23.8004 257.812 22.8004 257.812 21.4004V20.2004H257.711C257.305 20.9004 256.596 21.4004 255.887 21.8004C255.178 22.2004 254.266 22.4004 253.354 22.4004C251.631 22.4004 250.213 21.8004 248.997 20.5004C247.781 19.2004 247.173 17.6004 247.173 15.7004C247.173 13.8004 247.781 12.2004 248.997 10.9004C250.213 9.60039 251.631 8.90039 253.354 8.90039C254.266 8.90039 255.076 9.10039 255.887 9.50039C256.697 9.90039 257.305 10.4004 257.711 11.1004H257.812V9.40039H260.142V21.5004C260.142 23.5004 259.535 25.1004 258.42 26.3004C257.204 27.5004 255.583 28.0004 253.658 28.0004ZM253.759 20.3004C254.975 20.3004 255.887 19.9004 256.697 19.0004C257.508 18.2004 257.913 17.1004 257.913 15.7004C257.913 14.4004 257.508 13.3004 256.697 12.4004C255.887 11.5004 254.975 11.1004 253.759 11.1004C252.644 11.1004 251.631 11.5004 250.821 12.4004C250.01 13.3004 249.605 14.4004 249.605 15.7004C249.605 17.0004 250.01 18.1004 250.821 19.0004C251.631 19.9004 252.543 20.3004 253.759 20.3004Z" fill="#5F6368"/>
<path d="M142.099 22.5C136.222 22.5 131.358 17.8 131.358 12C131.358 6.2 136.323 1.5 142.099 1.5C145.341 1.5 147.672 2.8 149.394 4.4L147.368 6.4C146.152 5.2 144.429 4.4 142.099 4.4C137.843 4.4 134.499 7.8 134.499 12C134.499 16.2 137.843 19.6 142.099 19.6C144.835 19.6 146.456 18.5 147.469 17.5C148.28 16.7 148.888 15.5 149.09 13.9H142.099V11H151.826C151.927 11.5 152.029 12.1 152.029 12.8C152.029 14.9 151.421 17.6 149.496 19.5C147.672 21.4 145.341 22.5 142.099 22.5Z" fill="#4285F4"/>
<path d="M167.227 15.7004C167.227 19.6004 164.188 22.5004 160.439 22.5004C156.69 22.5004 153.65 19.6004 153.65 15.7004C153.65 11.8004 156.69 8.90039 160.439 8.90039C164.188 8.90039 167.227 11.8004 167.227 15.7004ZM164.188 15.7004C164.188 13.3004 162.465 11.6004 160.439 11.6004C158.412 11.6004 156.69 13.3004 156.69 15.7004C156.69 18.1004 158.412 19.8004 160.439 19.8004C162.465 19.8004 164.188 18.1004 164.188 15.7004Z" fill="#EA4335"/>
<path d="M182.325 15.7004C182.325 19.6004 179.285 22.5004 175.536 22.5004C171.787 22.5004 168.747 19.6004 168.747 15.7004C168.747 11.8004 171.787 8.90039 175.536 8.90039C179.285 9.00039 182.325 11.8004 182.325 15.7004ZM179.386 15.7004C179.386 13.3004 177.664 11.6004 175.637 11.6004C173.611 11.6004 171.888 13.3004 171.888 15.7004C171.888 18.1004 173.611 19.8004 175.637 19.8004C177.563 19.8004 179.386 18.1004 179.386 15.7004Z" fill="#FBBC04"/>
<path d="M197.017 9.3998V21.4998C197.017 26.4998 194.079 28.4998 190.532 28.4998C187.188 28.4998 185.263 26.2998 184.453 24.4998L187.087 23.3998C187.594 24.4998 188.708 25.7998 190.532 25.7998C192.761 25.7998 194.18 24.3998 194.18 21.7998V20.7998H194.079C193.369 21.5998 192.153 22.2998 190.431 22.2998C186.986 22.2998 183.845 19.3998 183.845 15.5998C183.845 11.7998 186.986 8.7998 190.431 8.7998C192.052 8.7998 193.369 9.4998 194.079 10.2998H194.18V9.3998H197.017ZM194.383 15.6998C194.383 13.2998 192.761 11.5998 190.735 11.5998C188.708 11.5998 186.885 13.2998 186.885 15.6998C186.885 18.0998 188.607 19.7998 190.735 19.7998C192.761 19.7998 194.383 18.0998 194.383 15.6998Z" fill="#4285F4"/>
<path d="M202.286 2.2002V22.0002H199.246V2.2002H202.286Z" fill="#34A853"/>
<path d="M214.141 17.8998L216.471 19.3998C215.762 20.4998 213.938 22.3998 210.797 22.3998C206.947 22.3998 204.11 19.3998 204.11 15.5998C204.11 11.5998 206.947 8.7998 210.493 8.7998C214.04 8.7998 215.762 11.5998 216.37 13.0998L216.674 13.8998L207.555 17.5998C208.264 18.9998 209.379 19.5998 210.899 19.5998C212.418 19.5998 213.33 19.0998 214.141 17.8998ZM206.947 15.4998L213.026 12.9998C212.722 12.1998 211.709 11.5998 210.493 11.5998C208.973 11.5998 206.846 12.8998 206.947 15.4998Z" fill="#EA4335"/>
<path d="M1.56104 14.1006H2.87826L4.70211 20.2006L6.62729 14.1006H7.94451L9.97101 20.2006L11.7949 14.1006H13.1121L10.579 21.8006H9.36306L7.33656 15.6006L5.31006 21.8006H4.09416L1.56104 14.1006Z" fill="#5F6368"/>
<path d="M14.4293 12.5004C14.2267 12.3004 14.1253 12.1004 14.1253 11.8004C14.1253 11.5004 14.2267 11.3004 14.4293 11.2004C14.632 11.0004 14.8346 10.9004 15.1386 10.9004C15.4426 10.9004 15.6452 11.0004 15.8479 11.2004C16.0505 11.4004 16.1518 11.6004 16.1518 11.8004C16.1518 12.1004 16.0505 12.3004 15.8479 12.5004C15.6452 12.7004 15.4426 12.8004 15.1386 12.8004C14.8346 12.7004 14.632 12.6004 14.4293 12.5004ZM14.4293 14.1004H15.7465V21.8004H14.4293V14.1004Z" fill="#5F6368"/>
<path d="M19.7995 22C19.4956 21.9 19.2929 21.8 19.0903 21.6C18.8876 21.4 18.685 21.2 18.5836 20.9C18.4823 20.6 18.381 20.3 18.381 20V15.4H17.0638V14.2H18.381V12H19.6982V14.2H21.6234V15.4H19.6982V19.7C19.6982 20.1 19.7995 20.5 19.9009 20.7C20.1035 20.9 20.4075 21 20.7115 21C21.0154 21 21.3194 20.9 21.5221 20.7V22C21.3194 22.1 21.2181 22.1 21.0154 22.2C20.8128 22.2 20.6101 22.2 20.4075 22.2C20.4075 22.1 20.1035 22.1 19.7995 22Z" fill="#5F6368"/>
<path d="M23.4472 11H24.7645V14.2L24.6631 15.3H24.7645C24.9671 14.9 25.2711 14.6 25.7777 14.3C26.2843 14 26.791 13.9 27.2976 13.9C28.2095 13.9 29.0201 14.2 29.5267 14.7C30.0334 15.3 30.236 16 30.236 16.9V21.9H28.9188V17.1C28.9188 16.4 28.7161 15.9 28.4122 15.6C28.0069 15.3 27.6016 15.1 26.9936 15.1C26.5883 15.1 26.183 15.2 25.879 15.5C25.5751 15.7 25.2711 16.1 25.0684 16.4C24.8658 16.8 24.7645 17.2 24.7645 17.6V21.9H23.4472V11Z" fill="#5F6368"/>
<path d="M36.3155 21.5004C35.7076 21.1004 35.4036 20.6004 35.0996 20.0004L36.3155 19.5004C36.5182 20.0004 36.8221 20.3004 37.2274 20.6004C37.6327 20.9004 38.038 21.0004 38.4433 21.0004C38.95 21.0004 39.3553 20.9004 39.6592 20.7004C39.9632 20.5004 40.1659 20.2004 40.1659 19.9004C40.1659 19.6004 40.0645 19.3004 39.7606 19.1004C39.4566 18.9004 39.0513 18.7004 38.4433 18.6004L37.5314 18.4004C36.9235 18.2004 36.4168 18.0004 36.0115 17.6004C35.6062 17.2004 35.4036 16.8004 35.4036 16.2004C35.4036 15.8004 35.5049 15.4004 35.8089 15.0004C36.1129 14.7004 36.4168 14.4004 36.9235 14.2004C37.3288 14.0004 37.8354 13.9004 38.342 13.9004C39.0513 13.9004 39.6592 14.0004 40.1659 14.3004C40.6725 14.6004 41.0778 15.0004 41.2804 15.5004L40.1659 16.0004C39.8619 15.3004 39.1526 15.0004 38.342 15.0004C37.9367 15.0004 37.5314 15.1004 37.2274 15.3004C36.9235 15.5004 36.7208 15.7004 36.7208 16.0004C36.7208 16.3004 36.8221 16.5004 37.0248 16.7004C37.2274 16.9004 37.6327 17.0004 38.038 17.1004L39.1526 17.4004C39.9632 17.6004 40.4698 17.9004 40.8751 18.3004C41.2804 18.7004 41.4831 19.1004 41.4831 19.7004C41.4831 20.2004 41.3818 20.6004 41.0778 20.9004C40.7738 21.3004 40.4698 21.5004 39.9632 21.7004C39.4566 21.9004 38.95 22.0004 38.4433 22.0004C37.5314 22.1004 36.8221 21.9004 36.3155 21.5004Z" fill="#5F6368"/>
<path d="M43.6109 21.3006C43.1043 20.8006 42.9016 20.0006 42.9016 19.0006V14.1006H44.2189V18.8006C44.2189 19.5006 44.4215 20.1006 44.7255 20.4006C45.0295 20.7006 45.5361 20.9006 46.0427 20.9006C46.448 20.9006 46.8533 20.8006 47.2586 20.6006C47.5626 20.4006 47.8666 20.1006 48.0692 19.7006C48.2719 19.3006 48.3732 18.9006 48.3732 18.5006V14.1006H49.6904V21.8006H48.4745V20.7006H48.3732C48.1705 21.1006 47.7652 21.4006 47.3599 21.7006C46.8533 22.0006 46.3467 22.1006 45.8401 22.1006C44.8268 22.1006 44.1175 21.8006 43.6109 21.3006Z" fill="#5F6368"/>
<path d="M51.4129 14.1004H52.6288V15.3004H52.7302C52.9328 14.9004 53.3381 14.6004 53.8447 14.3004C54.3514 14.0004 54.858 13.9004 55.4659 13.9004C56.1752 13.9004 56.7832 14.1004 57.3911 14.4004C57.9991 14.8004 58.4044 15.2004 58.7083 15.9004C59.0123 16.5004 59.215 17.2004 59.215 18.0004C59.215 18.8004 59.0123 19.5004 58.7083 20.1004C58.4044 20.7004 57.8977 21.2004 57.3911 21.6004C56.7832 22.0004 56.1752 22.1004 55.4659 22.1004C54.858 22.1004 54.3514 22.0004 53.8447 21.7004C53.3381 21.4004 53.0341 21.1004 52.7302 20.7004H52.6288L52.7302 21.8004V25.1004H51.4129V14.1004ZM56.5805 20.6004C56.9858 20.4004 57.2898 20.0004 57.4924 19.6004C57.6951 19.2004 57.8977 18.6004 57.8977 18.1004C57.8977 17.5004 57.7964 17.0004 57.4924 16.6004C57.2898 16.2004 56.8845 15.8004 56.5805 15.6004C56.1752 15.4004 55.7699 15.2004 55.2633 15.2004C54.858 15.2004 54.3514 15.3004 53.9461 15.6004C53.5408 15.8004 53.2368 16.2004 53.0341 16.6004C52.8315 17.0004 52.7302 17.6004 52.7302 18.1004C52.7302 18.7004 52.8315 19.2004 53.0341 19.6004C53.2368 20.0004 53.5408 20.4004 53.9461 20.6004C54.3514 20.8004 54.7567 21.0004 55.2633 21.0004C55.6686 20.9004 56.1752 20.8004 56.5805 20.6004Z" fill="#5F6368"/>
<path d="M60.4309 14.1004H61.6468V15.3004H61.7481C61.9508 14.9004 62.3561 14.6004 62.8627 14.3004C63.3693 14.0004 63.8759 13.9004 64.4839 13.9004C65.1932 13.9004 65.8011 14.1004 66.4091 14.4004C67.017 14.8004 67.4223 15.2004 67.7263 15.9004C68.0303 16.5004 68.2329 17.2004 68.2329 18.0004C68.2329 18.8004 68.0303 19.5004 67.7263 20.1004C67.4223 20.7004 66.9157 21.2004 66.4091 21.6004C65.8011 22.0004 65.1932 22.1004 64.4839 22.1004C63.8759 22.1004 63.3693 22.0004 62.8627 21.7004C62.3561 21.4004 62.0521 21.1004 61.7481 20.7004H61.6468L61.7481 21.8004V25.1004H60.4309V14.1004ZM65.5985 20.6004C66.0038 20.4004 66.3077 20.0004 66.5104 19.6004C66.713 19.2004 66.9157 18.6004 66.9157 18.1004C66.9157 17.5004 66.8144 17.0004 66.5104 16.6004C66.3077 16.2004 65.9024 15.8004 65.5985 15.6004C65.1932 15.4004 64.7879 15.2004 64.2812 15.2004C63.8759 15.2004 63.3693 15.3004 62.964 15.6004C62.5587 15.8004 62.2547 16.2004 62.0521 16.6004C61.8494 17.0004 61.7481 17.6004 61.7481 18.1004C61.7481 18.7004 61.8494 19.2004 62.0521 19.6004C62.2547 20.0004 62.5587 20.4004 62.964 20.6004C63.3693 20.8004 63.7746 21.0004 64.2812 21.0004C64.7879 20.9004 65.1932 20.8004 65.5985 20.6004Z" fill="#5F6368"/>
<path d="M71.2726 21.6004C70.6647 21.2004 70.1581 20.7004 69.8541 20.1004C69.5501 19.5004 69.3475 18.8004 69.3475 18.0004C69.3475 17.2004 69.5501 16.6004 69.8541 15.9004C70.1581 15.3004 70.6647 14.8004 71.2726 14.4004C71.8806 14.0004 72.5899 13.9004 73.2992 13.9004C74.0084 13.9004 74.7177 14.1004 75.3257 14.4004C75.9336 14.8004 76.4402 15.3004 76.7442 15.9004C77.0482 16.5004 77.2508 17.2004 77.2508 18.0004C77.2508 18.8004 77.0482 19.4004 76.7442 20.1004C76.4402 20.7004 75.9336 21.2004 75.3257 21.6004C74.7177 22.0004 74.0084 22.1004 73.2992 22.1004C72.5899 22.1004 71.8806 21.9004 71.2726 21.6004ZM74.6164 20.6004C75.0217 20.4004 75.3257 20.0004 75.6296 19.6004C75.8323 19.2004 76.0349 18.6004 76.0349 18.0004C76.0349 17.4004 75.9336 16.9004 75.6296 16.4004C75.427 16.0004 75.0217 15.6004 74.6164 15.4004C74.2111 15.2004 73.7045 15.0004 73.2992 15.0004C72.8939 15.0004 72.3872 15.1004 71.9819 15.4004C71.5766 15.6004 71.2726 16.0004 70.9687 16.4004C70.766 16.8004 70.5634 17.4004 70.5634 18.0004C70.5634 18.6004 70.6647 19.1004 70.9687 19.6004C71.1713 20.0004 71.5766 20.4004 71.9819 20.6004C72.3872 20.8004 72.8939 21.0004 73.2992 21.0004C73.7045 21.0004 74.2111 20.8004 74.6164 20.6004Z" fill="#5F6368"/>
<path d="M78.6694 14.3H79.8853V15.5H79.9866C80.1892 15 80.4932 14.7 80.8985 14.4C81.3038 14.1 81.8104 14 82.3171 14C82.5197 14 82.7224 14 82.925 14V15.3C82.7224 15.3 82.5197 15.2 82.2157 15.2C81.5065 15.2 80.9998 15.4 80.5945 15.9C80.1892 16.3 79.9866 16.9 79.9866 17.6V21.9H78.6694V14.3ZM86.674 22C86.3701 21.9 86.1674 21.8 85.9648 21.6C85.7621 21.4 85.5595 21.2 85.4581 20.9C85.3568 20.6 85.2555 20.3 85.2555 20V15.4H83.9383V14.2H85.2555V12H86.5727V14.2H88.4979V15.4H86.5727V19.7C86.5727 20.1 86.674 20.5 86.7754 20.7C86.978 20.9 87.282 21 87.586 21C87.8899 21 88.1939 20.9 88.3966 20.7V22C88.1939 22.1 88.0926 22.1 87.8899 22.2C87.6873 22.3 87.4846 22.2 87.282 22.2C87.1807 22.1 86.8767 22.1 86.674 22Z" fill="#5F6368"/>
<path d="M93.6655 15.3004H92.2469V14.1004H93.6655V13.3004C93.6655 12.8004 93.7668 12.4004 93.9694 12.0004C94.1721 11.6004 94.4761 11.4004 94.8814 11.2004C95.2867 11.0004 95.692 10.9004 96.0973 10.9004C96.5026 10.9004 96.9079 11.0004 97.2118 11.1004V12.4004C97.0092 12.3004 96.8065 12.3004 96.7052 12.2004C96.5026 12.2004 96.2999 12.1004 96.0973 12.1004C95.7933 12.1004 95.4893 12.2004 95.1853 12.5004C94.9827 12.7004 94.78 13.1004 94.78 13.5004V14.2004H96.8065V15.4004H94.78V22.0004H93.4628V15.3004H93.6655Z" fill="#5F6368"/>
<path d="M98.6304 14.1008H99.8463V15.3008H99.9476C100.15 14.9008 100.353 14.5008 100.86 14.2008C101.265 13.9008 101.771 13.8008 102.278 13.8008C102.683 13.8008 102.987 13.9008 103.19 14.0008V15.4008C102.886 15.2008 102.481 15.2008 102.075 15.2008C101.67 15.2008 101.366 15.3008 101.062 15.5008C100.758 15.7008 100.454 16.0008 100.353 16.4008C100.15 16.8008 100.049 17.1008 100.049 17.6008V21.9008H98.7317V14.1008H98.6304Z" fill="#5F6368"/>
<path d="M105.419 21.6004C104.811 21.2004 104.305 20.7004 104.001 20.1004C103.697 19.5004 103.494 18.8004 103.494 18.0004C103.494 17.2004 103.697 16.6004 104.001 15.9004C104.305 15.3004 104.811 14.8004 105.419 14.4004C106.027 14.0004 106.736 13.9004 107.446 13.9004C108.256 13.9004 108.864 14.1004 109.472 14.4004C110.08 14.8004 110.587 15.3004 110.891 15.9004C111.195 16.5004 111.397 17.2004 111.397 18.0004C111.397 18.8004 111.195 19.4004 110.891 20.1004C110.587 20.7004 110.08 21.2004 109.472 21.6004C108.864 22.0004 108.155 22.1004 107.446 22.1004C106.736 22.1004 106.027 21.9004 105.419 21.6004ZM108.864 20.6004C109.27 20.4004 109.573 20.0004 109.877 19.6004C110.08 19.2004 110.283 18.6004 110.283 18.0004C110.283 17.4004 110.181 16.9004 109.877 16.4004C109.675 16.0004 109.27 15.6004 108.864 15.4004C108.459 15.2004 107.952 15.0004 107.547 15.0004C107.04 15.0004 106.635 15.1004 106.23 15.4004C105.824 15.6004 105.521 16.0004 105.217 16.4004C105.014 16.8004 104.811 17.4004 104.811 18.0004C104.811 18.6004 104.913 19.1004 105.217 19.6004C105.419 20.0004 105.824 20.4004 106.23 20.6004C106.635 20.8004 107.142 21.0004 107.547 21.0004C107.952 20.9004 108.459 20.8004 108.864 20.6004Z" fill="#5F6368"/>
<path d="M112.917 14.1008H114.133V15.2008H114.234C114.437 14.8008 114.842 14.5008 115.248 14.2008C115.653 13.9008 116.16 13.8008 116.666 13.8008C117.274 13.8008 117.781 13.9008 118.186 14.2008C118.591 14.5008 118.895 14.8008 119.098 15.3008C119.402 14.8008 119.706 14.5008 120.213 14.2008C120.618 13.9008 121.226 13.8008 121.834 13.8008C122.746 13.8008 123.455 14.1008 123.86 14.6008C124.266 15.1008 124.57 15.9008 124.57 16.8008V21.8008H123.252V17.0008C123.252 16.3008 123.151 15.8008 122.847 15.4008C122.543 15.1008 122.138 14.9008 121.53 14.9008C121.125 14.9008 120.821 15.0008 120.517 15.2008C120.213 15.4008 119.909 15.7008 119.807 16.1008C119.605 16.5008 119.503 16.9008 119.503 17.3008V21.7008H118.186V17.0008C118.186 16.3008 118.085 15.7008 117.781 15.4008C117.477 15.1008 117.072 14.9008 116.464 14.9008C116.058 14.9008 115.754 15.0008 115.45 15.2008C115.146 15.4008 114.842 15.7008 114.741 16.1008C114.538 16.5008 114.437 16.9008 114.437 17.3008V21.6008H113.12V14.1008H112.917Z" fill="#5F6368"/>
</g>
<defs>
<clipPath id="clip0_1299_13096">
<rect width="260" height="29" fill="white" transform="translate(0.851746 0.5)"/>
</clipPath>
</defs>
</svg>
